<svg xmlns="http://www.w3.org/2000/svg" width="165" height="165" viewBox="0 0 165 165">
  <path id="Icon_awesome-check-circle" data-name="Icon awesome-check-circle" d="M165.563,83.062a82.5,82.5,0,1,1-82.5-82.5A82.5,82.5,0,0,1,165.563,83.062ZM73.52,126.746l61.21-61.21a5.323,5.323,0,0,0,0-7.527L127.2,50.482a5.322,5.322,0,0,0-7.527,0L69.756,100.4,46.45,77.094a5.323,5.323,0,0,0-7.527,0L31.4,84.621a5.323,5.323,0,0,0,0,7.527l34.6,34.6a5.323,5.323,0,0,0,7.527,0Z" transform="translate(-0.563 -0.563)" fill="#fff"/>
</svg>
