<svg xmlns="http://www.w3.org/2000/svg" width="53.933" height="64.575" viewBox="0 0 53.933 64.575">
  <g id="Group_389" data-name="Group 389" transform="translate(-513.516 -1791.901)">
    <g id="notification" transform="translate(513.784 1792.151)">
      <g id="Group_381" data-name="Group 381" transform="translate(0 9.344)">
        <g id="Group_380" data-name="Group 380">
          <path id="Path_18816" data-name="Path 18816" d="M95.865,119.367l-4.587-7.641a22.712,22.712,0,0,1-3.233-11.678V93.355a18.688,18.688,0,1,0-37.377,0v6.693a22.712,22.712,0,0,1-3.233,11.678l-4.587,7.641a1.334,1.334,0,0,0,1.145,2.021H94.719a1.334,1.334,0,0,0,1.145-2.021Zm-49.514-.649,3.372-5.62a25.358,25.358,0,0,0,3.615-13.05V93.355a16.019,16.019,0,1,1,32.037,0v6.693a25.381,25.381,0,0,0,3.612,13.05l3.375,5.62Z" transform="translate(-42.657 -74.667)" fill="#008fe3" stroke="#4e9dc6" stroke-width="0.5"/>
        </g>
      </g>
      <g id="Group_383" data-name="Group 383" transform="translate(21.359)">
        <g id="Group_382" data-name="Group 382">
          <path id="Path_18817" data-name="Path 18817" d="M218.673,0a5.345,5.345,0,0,0-5.34,5.34v5.34a1.335,1.335,0,0,0,2.67,0V5.34a2.67,2.67,0,1,1,5.339,0v5.34a1.335,1.335,0,0,0,2.67,0V5.34A5.345,5.345,0,0,0,218.673,0Z" transform="translate(-213.333)" fill="#008fe3" stroke="#4e9dc6" stroke-width="0.5"/>
        </g>
      </g>
      <g id="Group_385" data-name="Group 385" transform="translate(20.024 53.397)">
        <g id="Group_384" data-name="Group 384">
          <path id="Path_18818" data-name="Path 18818" d="M215.118,427.337a1.337,1.337,0,1,0-2.307,1.351,4,4,0,1,1-6.936,0,1.337,1.337,0,0,0-2.307-1.351,6.677,6.677,0,1,0,11.549,0Z" transform="translate(-202.666 -426.68)" fill="#008fe3" stroke="#4e9dc6" stroke-width="0.5"/>
        </g>
      </g>
    </g>
    <path id="Path_18823" data-name="Path 18823" d="M1975.452,3820.9h49.8l-6.193-11.611-1.806-9.289v-8l-3.612-8.515-6.708-5.935H1996.61l-5.454,2.37-5.172,4.784-1.6,3.849-1.069,4.437-.428,5.239v7.483l-.722,2.352-1.283,2.566-.908,2.192-1.551,2.3a17.041,17.041,0,0,1-1.122,2.566,19.1,19.1,0,0,0-1.5,1.924Z" transform="translate(-1460.045 -1974.307)" fill="#008fe3"/>
    <path id="Path_18824" data-name="Path 18824" d="M2005.35,3776.87l-.578-7.6-3.965-1.735-1.817.827-1.652.908-.743,4.708v2.4l.743,2.56Z" transform="translate(-1460.615 -1974.037)" fill="#008fe3"/>
  </g>
</svg>
