<svg xmlns="http://www.w3.org/2000/svg" width="48.757" height="57.622" viewBox="0 0 48.757 57.622">
  <g id="Group_984" data-name="Group 984" transform="translate(-56 -84.438)">
    <path id="Icon_ionic-md-notifications-outline" data-name="Icon ionic-md-notifications-outline" d="M30.142,13.413a20.024,20.024,0,0,1,3.312.62,14.116,14.116,0,0,1,10.76,13.831V45.54l1.291,1.3,1.079,1.084H13.424L14.5,46.838l1.291-1.3V27.864a14.116,14.116,0,0,1,10.76-13.831,24.521,24.521,0,0,1,3.312-.62M30,3.375A4.235,4.235,0,0,0,25.7,7.7V9.713a18.674,18.674,0,0,0-14.34,18.151V43.71L5.625,49.473v2.881H54.382V49.473L48.646,43.71V27.864A18.674,18.674,0,0,0,34.306,9.713V7.7A4.235,4.235,0,0,0,30,3.375Zm5.736,51.86H24.267a5.736,5.736,0,1,0,11.472,0Z" transform="translate(50.375 81.063)" fill="#fff"/>
  </g>
</svg>
