<svg xmlns="http://www.w3.org/2000/svg" width="48.276" height="48.276" viewBox="0 0 48.276 48.276">
  <path id="Icon_awesome-phone-alt" data-name="Icon awesome-phone-alt" d="M46.9,34.114l-10.56-4.526a2.263,2.263,0,0,0-2.64.651l-4.677,5.714A34.95,34.95,0,0,1,12.314,19.245l5.714-4.677a2.257,2.257,0,0,0,.651-2.64L14.153,1.368A2.278,2.278,0,0,0,11.56.057L1.754,2.32A2.263,2.263,0,0,0,0,4.526,43.746,43.746,0,0,0,43.751,48.276a2.263,2.263,0,0,0,2.206-1.754l2.263-9.806a2.29,2.29,0,0,0-1.321-2.6Z" transform="translate(0 0)" fill="#fff"/>
</svg>
