<svg xmlns="http://www.w3.org/2000/svg" width="39" height="39" viewBox="0 0 39 39">
  <path id="Icon_material-language" data-name="Icon material-language" d="M22.48,3A19.5,19.5,0,1,0,42,22.5,19.49,19.49,0,0,0,22.48,3ZM35.994,14.7H30.242a30.516,30.516,0,0,0-2.691-6.942A15.658,15.658,0,0,1,35.994,14.7ZM22.5,6.978A27.469,27.469,0,0,1,26.224,14.7H18.775A27.469,27.469,0,0,1,22.5,6.978ZM7.407,26.4a15.253,15.253,0,0,1,0-7.8H14a32.2,32.2,0,0,0-.273,3.9A32.2,32.2,0,0,0,14,26.4Zm1.6,3.9h5.752a30.516,30.516,0,0,0,2.691,6.942A15.574,15.574,0,0,1,9.006,30.3Zm5.752-15.6H9.006a15.574,15.574,0,0,1,8.443-6.942A30.516,30.516,0,0,0,14.758,14.7ZM22.5,38.022A27.469,27.469,0,0,1,18.775,30.3h7.449A27.469,27.469,0,0,1,22.5,38.022ZM27.063,26.4H17.937a28.69,28.69,0,0,1-.312-3.9,28.441,28.441,0,0,1,.312-3.9h9.126a28.441,28.441,0,0,1,.312,3.9A28.69,28.69,0,0,1,27.063,26.4Zm.488,10.842A30.516,30.516,0,0,0,30.242,30.3h5.752a15.658,15.658,0,0,1-8.443,6.942ZM31,26.4a32.2,32.2,0,0,0,.273-3.9A32.2,32.2,0,0,0,31,18.6h6.591a15.253,15.253,0,0,1,0,7.8Z" transform="translate(-3 -3)" fill="#008fe3"/>
</svg>
