<svg xmlns="http://www.w3.org/2000/svg" width="59" height="59" viewBox="0 0 59 59">
  <path id="Icon_simple-instagram" data-name="Icon simple-instagram" d="M29.5,0c-8.014,0-9.015.037-12.161.177a21.753,21.753,0,0,0-7.161,1.372,14.446,14.446,0,0,0-5.226,3.4,14.394,14.394,0,0,0-3.4,5.226A21.689,21.689,0,0,0,.177,17.339C.03,20.485,0,21.486,0,29.5s.037,9.015.177,12.161a21.766,21.766,0,0,0,1.372,7.161,14.467,14.467,0,0,0,3.4,5.226,14.426,14.426,0,0,0,5.226,3.4,21.78,21.78,0,0,0,7.161,1.372c3.147.147,4.147.177,12.161.177s9.015-.037,12.161-.177a21.83,21.83,0,0,0,7.161-1.372,15.076,15.076,0,0,0,8.629-8.629,21.766,21.766,0,0,0,1.372-7.161C58.971,38.515,59,37.514,59,29.5s-.037-9.015-.177-12.161a21.817,21.817,0,0,0-1.372-7.161,14.479,14.479,0,0,0-3.4-5.226,14.373,14.373,0,0,0-5.226-3.4A21.7,21.7,0,0,0,41.661.177C38.515.03,37.514,0,29.5,0Zm0,5.31c7.874,0,8.813.039,11.923.175A16.253,16.253,0,0,1,46.9,6.5a9.708,9.708,0,0,1,5.6,5.6,16.288,16.288,0,0,1,1.015,5.475c.14,3.112.172,4.046.172,11.923s-.037,8.813-.182,11.923A16.6,16.6,0,0,1,52.468,46.9a9.367,9.367,0,0,1-2.21,3.4,9.2,9.2,0,0,1-3.392,2.2,16.407,16.407,0,0,1-5.494,1.015c-3.132.14-4.054.172-11.945.172s-8.816-.037-11.945-.182a16.727,16.727,0,0,1-5.5-1.035,9.136,9.136,0,0,1-3.39-2.21,8.957,8.957,0,0,1-2.213-3.392,16.742,16.742,0,0,1-1.033-5.494c-.111-3.1-.15-4.054-.15-11.908s.039-8.816.15-11.95a16.723,16.723,0,0,1,1.033-5.492A8.745,8.745,0,0,1,8.594,8.626a8.725,8.725,0,0,1,3.39-2.208,16.328,16.328,0,0,1,5.46-1.035c3.134-.111,4.056-.148,11.945-.148l.111.074Zm0,9.042A15.148,15.148,0,1,0,44.648,29.5,15.147,15.147,0,0,0,29.5,14.352Zm0,24.982A9.833,9.833,0,1,1,39.333,29.5,9.831,9.831,0,0,1,29.5,39.333ZM48.788,13.754a3.54,3.54,0,1,1-3.54-3.538A3.542,3.542,0,0,1,48.788,13.754Z" fill="#fff"/>
</svg>
