<svg xmlns="http://www.w3.org/2000/svg" width="40.585" height="40.585" viewBox="0 0 40.585 40.585">
  <path id="Icon_material-local-offer" data-name="Icon material-local-offer" d="M42.387,22.44,24.124,4.177A4.033,4.033,0,0,0,21.263,3H7.058A4.07,4.07,0,0,0,3,7.058v14.2a4.05,4.05,0,0,0,1.2,2.882L22.46,42.408a4.033,4.033,0,0,0,2.861,1.177,3.968,3.968,0,0,0,2.861-1.2l14.2-14.2a3.968,3.968,0,0,0,1.2-2.861,4.1,4.1,0,0,0-1.2-2.882ZM10.1,13.146A3.044,3.044,0,1,1,13.146,10.1,3.04,3.04,0,0,1,10.1,13.146Z" transform="translate(-3 -3)" fill="#008fe3"/>
</svg>
