<svg xmlns="http://www.w3.org/2000/svg" width="83.728" height="83.728" viewBox="0 0 83.728 83.728">
  <path id="Icon_feather-message-circle" data-name="Icon feather-message-circle" d="M88.227,44.038a38.98,38.98,0,0,1-4.186,17.676A39.538,39.538,0,0,1,48.689,83.576,38.979,38.979,0,0,1,31.014,79.39L4.5,88.228l8.838-26.514A38.98,38.98,0,0,1,9.152,44.038,39.538,39.538,0,0,1,31.014,8.686,38.98,38.98,0,0,1,48.689,4.5h2.326A39.445,39.445,0,0,1,88.227,41.712Z" transform="translate(-4.5 -4.5)" fill="#124355"/>
</svg>
