<svg xmlns="http://www.w3.org/2000/svg" width="53.485" height="35.672" viewBox="0 0 53.485 35.672">
  <path id="Icon_ionic-ios-arrow-round-back" data-name="Icon ionic-ios-arrow-round-back" d="M41.991,11.935a2.428,2.428,0,0,0-.019,3.418L53.249,26.667H10.279a2.415,2.415,0,0,0,0,4.83h42.97l-11.3,11.314a2.445,2.445,0,0,0,.019,3.418,2.4,2.4,0,0,0,3.4-.019L60.68,30.791h0a2.712,2.712,0,0,0,.5-.762,2.3,2.3,0,0,0,.186-.929,2.421,2.421,0,0,0-.687-1.691L45.372,11.99A2.367,2.367,0,0,0,41.991,11.935Z" transform="translate(-7.882 -11.252)" fill="#fff"/>
</svg>
