<svg xmlns="http://www.w3.org/2000/svg" width="36.001" height="36.001" viewBox="0 0 36.001 36.001">
  <path id="Icon_awesome-phone" data-name="Icon awesome-phone" d="M1.307,1.73,8.62.042a1.7,1.7,0,0,1,1.934.977l3.375,7.875a1.683,1.683,0,0,1-.485,1.969L9.182,14.351A26.059,26.059,0,0,0,21.641,26.81l3.488-4.261a1.686,1.686,0,0,1,1.969-.485l7.875,3.375a1.708,1.708,0,0,1,.984,1.941L34.27,34.692A1.687,1.687,0,0,1,32.624,36,32.622,32.622,0,0,1,0,3.375,1.685,1.685,0,0,1,1.307,1.73Z" transform="translate(0.001 0.001)" fill="#008fe3"/>
</svg>
