<svg xmlns="http://www.w3.org/2000/svg" width="83.728" height="83.728" viewBox="0 0 83.728 83.728">
  <path id="Icon_feather-message-circle" data-name="Icon feather-message-circle" d="M4.5,44.038A38.98,38.98,0,0,0,8.686,61.714,39.538,39.538,0,0,0,44.038,83.576,38.979,38.979,0,0,0,61.714,79.39l26.514,8.838L79.39,61.714a38.98,38.98,0,0,0,4.186-17.676A39.538,39.538,0,0,0,61.714,8.686,38.98,38.98,0,0,0,44.038,4.5H41.712A39.445,39.445,0,0,0,4.5,41.712Z" transform="translate(-4.5 -4.5)" fill="#124355"/>
</svg>
