<svg xmlns="http://www.w3.org/2000/svg" width="31.601" height="34.893" viewBox="0 0 31.601 34.893">
  <path id="Icon_ionic-md-share" data-name="Icon ionic-md-share" d="M30.819,27.817a4.8,4.8,0,0,0-3.433,1.315L14.8,21.856a5.9,5.9,0,0,0,.176-1.228A5.893,5.893,0,0,0,14.8,19.4l12.412-7.188a5.268,5.268,0,1,0-1.673-3.858,5.86,5.86,0,0,0,.176,1.228L13.3,16.77a5.3,5.3,0,0,0-3.609-1.4A5.212,5.212,0,0,0,4.5,20.628a5.3,5.3,0,0,0,8.891,3.858l12.5,7.277a4.4,4.4,0,0,0-.176,1.14,5.105,5.105,0,1,0,5.105-5.085Z" transform="translate(-4.5 -3.094)" fill="#008fe3"/>
</svg>
