<svg xmlns="http://www.w3.org/2000/svg" width="44" height="44" viewBox="0 0 44 44">
  <path id="Icon_feather-message-circle" data-name="Icon feather-message-circle" d="M45.5,23.861a19.088,19.088,0,0,1-2.05,8.656A19.361,19.361,0,0,1,26.139,43.222a19.088,19.088,0,0,1-8.656-2.05L4.5,45.5,8.828,32.517a19.088,19.088,0,0,1-2.05-8.656A19.361,19.361,0,0,1,17.483,6.55,19.088,19.088,0,0,1,26.139,4.5h1.139A19.316,19.316,0,0,1,45.5,22.722Z" transform="translate(-3 -3)" fill="none" stroke="#fff" stroke-linecap="round" stroke-linejoin="round" stroke-width="3"/>
</svg>
