<svg xmlns="http://www.w3.org/2000/svg" width="51.453" height="51.453" viewBox="0 0 51.453 51.453">
  <path id="Icon_material-local-offer" data-name="Icon material-local-offer" d="M50.024,26.209l-21.8-21.8A4.815,4.815,0,0,0,24.8,3H7.845A4.86,4.86,0,0,0,3,7.845V24.8a4.835,4.835,0,0,0,1.429,3.44l21.8,21.8a4.815,4.815,0,0,0,3.416,1.405,4.737,4.737,0,0,0,3.416-1.429L50.024,33.065a4.737,4.737,0,0,0,1.429-3.416,4.893,4.893,0,0,0-1.429-3.44Zm-38.544-11.1a3.634,3.634,0,1,1,3.634-3.634A3.629,3.629,0,0,1,11.479,15.113Z" transform="translate(-1.5 -1.5)" fill="none" stroke="#b7b7b7" stroke-width="3"/>
</svg>
