<svg id="shopping-bag_2_" data-name="shopping-bag (2)" xmlns="http://www.w3.org/2000/svg" width="50.298" height="63.438" viewBox="0 0 50.298 63.438">
  <g id="Group_367" data-name="Group 367" transform="translate(0 12.515)">
    <g id="Group_366" data-name="Group 366">
      <path id="Path_18813" data-name="Path 18813" d="M103.291,140.8l-2.833-35.7a4.461,4.461,0,0,0-4.428-4.1h-5.6V109.3a1.858,1.858,0,1,1-3.716,0V101H69.627V109.3a1.858,1.858,0,1,1-3.716,0V101h-5.6a4.46,4.46,0,0,0-4.428,4.1l-2.834,35.707a10.33,10.33,0,0,0,10.3,11.12H92.994a10.329,10.329,0,0,0,10.3-11.125ZM86.543,122.624l-9.609,9.609a1.857,1.857,0,0,1-2.628,0l-4.5-4.5A1.858,1.858,0,0,1,72.43,125.1l3.191,3.189,8.3-8.3a1.858,1.858,0,1,1,2.627,2.628Z" transform="translate(-53.023 -101.005)" fill="#008fe3"/>
    </g>
  </g>
  <g id="Group_369" data-name="Group 369" transform="translate(12.888)">
    <g id="Group_368" data-name="Group 368">
      <path id="Path_18814" data-name="Path 18814" d="M169.3,0a12.277,12.277,0,0,0-12.262,12.263v.251h3.716v-.251a8.546,8.546,0,1,1,17.092,0v.251h3.716v-.251A12.277,12.277,0,0,0,169.3,0Z" transform="translate(-157.039)" fill="#008fe3"/>
    </g>
  </g>
</svg>
