<svg id="sent" xmlns="http://www.w3.org/2000/svg" width="42.282" height="48.552" viewBox="0 0 42.282 48.552">
  <g id="Group_363" data-name="Group 363" transform="translate(0)">
    <g id="Group_362" data-name="Group 362" transform="translate(0)">
      <path id="Path_18811" data-name="Path 18811" d="M75.153,13.4l-.036-.062a2.292,2.292,0,0,0-.171-.3L68.191,1.364A2.739,2.739,0,0,0,65.827,0H42.581a2.739,2.739,0,0,0-2.366,1.367L33.35,13.276a1.424,1.424,0,0,0-.138.334,2.4,2.4,0,0,0-.15.837V45.206a3.35,3.35,0,0,0,3.346,3.346H72a3.35,3.35,0,0,0,3.346-3.346V14.334c0-.041,0-.082,0-.123A1.416,1.416,0,0,0,75.153,13.4ZM55.675,2.846H65.761l5.313,9.186h-15.4Zm-13.028,0H52.829v9.186H37.352ZM72.5,45.207a.5.5,0,0,1-.5.5H36.408a.5.5,0,0,1-.5-.5V14.878H72.5Z" transform="translate(-33.062)" fill="#b7b7b7"/>
    </g>
  </g>
  <g id="Group_365" data-name="Group 365" transform="translate(14.362 25.19)">
    <g id="Group_364" data-name="Group 364" transform="translate(0)">
      <path id="Path_18812" data-name="Path 18812" d="M197.75,266.048a1.423,1.423,0,0,0-2.012,0l-6.354,6.354-2.443-2.443a1.423,1.423,0,0,0-2.012,2.012l3.45,3.449a1.423,1.423,0,0,0,2.012,0l7.36-7.36A1.423,1.423,0,0,0,197.75,266.048Z" transform="translate(-184.512 -265.632)" fill="#b7b7b7"/>
    </g>
  </g>
</svg>
