<svg xmlns="http://www.w3.org/2000/svg" width="64.331" height="55.587" viewBox="0 0 64.331 55.587">
  <path id="Subtraction_4" data-name="Subtraction 4" d="M50.733,55.087a5.51,5.51,0,1,1,0-11.018H24.307a5.51,5.51,0,1,1-5.61,5.509,5.567,5.567,0,0,1,5.61-5.509h-3.74a5.493,5.493,0,0,1-2.228-10.563c-.187-.826-2.89-12.769-4.863-21.489L11.588,3.673H1.87A1.856,1.856,0,0,1,0,1.836,1.855,1.855,0,0,1,1.87,0H13.089a1.853,1.853,0,0,1,1.825,1.438L16.25,7.345c46.634,0,46.845.275,47.194.731a1.818,1.818,0,0,1,.305,1.61L56.271,35.393a1.874,1.874,0,0,1-1.8,1.332H20.566a1.836,1.836,0,1,0,0,3.672h33.9a1.836,1.836,0,1,1,0,3.672H50.733a5.51,5.51,0,1,1,0,11.018Zm0-7.345a1.836,1.836,0,1,0,1.87,1.836A1.855,1.855,0,0,0,50.733,47.742Zm-26.426,0a1.836,1.836,0,1,0,1.87,1.836A1.855,1.855,0,0,0,24.307,47.742ZM17.081,11.017l4.986,22.036h31l6.411-22.036Z" transform="translate(0.25 0.25)" fill="#fff" stroke="#fff" stroke-width="0.5"/>
</svg>
